# xmcd
#
# Track frame offsets: 
#        150
#        19571
#        33743
#        52634
#        70331
#        85393
#        104353
#        122085
#        138312
#        159269
#        175551
#
# Disc length: 2574 seconds
#
# Revision: 0
# Processed by: cddbd v1.5.2PL0 Copyright (c) Steve Scherf et al.
# Submitted via: ExactAudioCopy v0.99pb3
#
DISCID=830a0c0b
DTITLE=Weston Horn and the Hush - Volume I
DYEAR=2018
DGENRE=Country
TTITLE0=She Had It All
TTITLE1=Devil Woman
TTITLE2=Paper Boat
TTITLE3=I Need Your Lovin'
TTITLE4=Hush
TTITLE5=Greyhound
TTITLE6=Quicksand
TTITLE7=One Thought
TTITLE8=I Won't Move
TTITLE9=Shake
TTITLE10=Just Can't Stop
EXTD=
EXTT0=
EXTT1=
EXTT2=
EXTT3=
EXTT4=
EXTT5=
EXTT6=
EXTT7=
EXTT8=
EXTT9=
EXTT10=
PLAYORDER=
